<mxfile host="app.diagrams.net" modified="2023-01-14T14:50:36.501Z" agent="5.0 (Windows)" version="20.8.5" etag="QpTZcYkJSZfxfiF4T2bI" type="github">
  <diagram id="e7usdUpXo5iLbDfutmgl" name="第 1 页">
    <mxGraphModel dx="1354" dy="1841" grid="1" gridSize="10" guides="1" tooltips="1" connect="1" arrows="1" fold="1" page="1" pageScale="1" pageWidth="827" pageHeight="1169" math="0" shadow="0">
      <root>
        <mxCell id="0" />
        <mxCell id="1" parent="0" />
        <mxCell id="0c3AmFxdO18scSqZdb3u-10" style="edgeStyle=orthogonalEdgeStyle;rounded=0;orthogonalLoop=1;jettySize=auto;html=1;entryX=0.5;entryY=1;entryDx=0;entryDy=0;" edge="1" parent="1" source="0c3AmFxdO18scSqZdb3u-2" target="0c3AmFxdO18scSqZdb3u-4">
          <mxGeometry relative="1" as="geometry">
            <Array as="points">
              <mxPoint x="420" y="230" />
              <mxPoint x="420" y="230" />
            </Array>
          </mxGeometry>
        </mxCell>
        <mxCell id="0c3AmFxdO18scSqZdb3u-11" style="edgeStyle=orthogonalEdgeStyle;rounded=0;orthogonalLoop=1;jettySize=auto;html=1;entryX=0;entryY=0.5;entryDx=0;entryDy=0;" edge="1" parent="1" source="0c3AmFxdO18scSqZdb3u-2" target="0c3AmFxdO18scSqZdb3u-6">
          <mxGeometry relative="1" as="geometry" />
        </mxCell>
        <mxCell id="0c3AmFxdO18scSqZdb3u-2" value="update语句执行流程" style="rounded=1;whiteSpace=wrap;html=1;strokeWidth=2;fillWeight=4;hachureGap=8;hachureAngle=45;fillColor=#dae8fc;sketch=1;glass=0;strokeColor=#6c8ebf;fontSize=24;fontStyle=1" vertex="1" parent="1">
          <mxGeometry x="310" y="290" width="200" height="60" as="geometry" />
        </mxCell>
        <mxCell id="0c3AmFxdO18scSqZdb3u-12" style="edgeStyle=orthogonalEdgeStyle;rounded=0;orthogonalLoop=1;jettySize=auto;html=1;entryX=0;entryY=0.5;entryDx=0;entryDy=0;" edge="1" parent="1" source="0c3AmFxdO18scSqZdb3u-4" target="0c3AmFxdO18scSqZdb3u-9">
          <mxGeometry relative="1" as="geometry" />
        </mxCell>
        <mxCell id="0c3AmFxdO18scSqZdb3u-4" value="undo log(回滚日志)" style="rounded=1;whiteSpace=wrap;html=1;strokeWidth=2;fillWeight=4;hachureGap=8;hachureAngle=45;fillColor=#dae8fc;sketch=1;glass=0;strokeColor=#6c8ebf;fontSize=24;fontStyle=1" vertex="1" parent="1">
          <mxGeometry x="310" y="20" width="220" height="70" as="geometry" />
        </mxCell>
        <mxCell id="0c3AmFxdO18scSqZdb3u-38" style="edgeStyle=orthogonalEdgeStyle;rounded=0;orthogonalLoop=1;jettySize=auto;html=1;entryX=0.556;entryY=-0.057;entryDx=0;entryDy=0;entryPerimeter=0;fontSize=24;" edge="1" parent="1" source="0c3AmFxdO18scSqZdb3u-6" target="0c3AmFxdO18scSqZdb3u-37">
          <mxGeometry relative="1" as="geometry" />
        </mxCell>
        <mxCell id="0c3AmFxdO18scSqZdb3u-50" style="edgeStyle=orthogonalEdgeStyle;rounded=0;orthogonalLoop=1;jettySize=auto;html=1;entryX=0.561;entryY=1.029;entryDx=0;entryDy=0;entryPerimeter=0;fontSize=24;" edge="1" parent="1" source="0c3AmFxdO18scSqZdb3u-6" target="0c3AmFxdO18scSqZdb3u-9">
          <mxGeometry relative="1" as="geometry">
            <Array as="points">
              <mxPoint x="789" y="230" />
              <mxPoint x="789" y="230" />
            </Array>
          </mxGeometry>
        </mxCell>
        <mxCell id="0c3AmFxdO18scSqZdb3u-6" value="redo log(重做日志)" style="rounded=1;whiteSpace=wrap;html=1;strokeWidth=2;fillWeight=4;hachureGap=8;hachureAngle=45;fillColor=#dae8fc;sketch=1;glass=0;strokeColor=#6c8ebf;fontSize=24;fontStyle=1" vertex="1" parent="1">
          <mxGeometry x="680" y="285" width="210" height="70" as="geometry" />
        </mxCell>
        <mxCell id="0c3AmFxdO18scSqZdb3u-14" value="" style="edgeStyle=orthogonalEdgeStyle;rounded=0;orthogonalLoop=1;jettySize=auto;html=1;" edge="1" parent="1" source="0c3AmFxdO18scSqZdb3u-9" target="0c3AmFxdO18scSqZdb3u-13">
          <mxGeometry relative="1" as="geometry" />
        </mxCell>
        <mxCell id="0c3AmFxdO18scSqZdb3u-19" style="edgeStyle=orthogonalEdgeStyle;rounded=0;orthogonalLoop=1;jettySize=auto;html=1;entryX=0.452;entryY=-0.071;entryDx=0;entryDy=0;entryPerimeter=0;" edge="1" parent="1" source="0c3AmFxdO18scSqZdb3u-9" target="0c3AmFxdO18scSqZdb3u-6">
          <mxGeometry relative="1" as="geometry" />
        </mxCell>
        <mxCell id="0c3AmFxdO18scSqZdb3u-9" value="Buffer pool(缓冲池)" style="rounded=1;whiteSpace=wrap;html=1;strokeWidth=2;fillWeight=4;hachureGap=8;hachureAngle=45;fillColor=#dae8fc;sketch=1;glass=0;strokeColor=#6c8ebf;fontSize=24;fontStyle=1" vertex="1" parent="1">
          <mxGeometry x="660" y="20" width="230" height="70" as="geometry" />
        </mxCell>
        <mxCell id="0c3AmFxdO18scSqZdb3u-18" value="" style="edgeStyle=orthogonalEdgeStyle;rounded=0;orthogonalLoop=1;jettySize=auto;html=1;" edge="1" parent="1" source="0c3AmFxdO18scSqZdb3u-13" target="0c3AmFxdO18scSqZdb3u-17">
          <mxGeometry relative="1" as="geometry" />
        </mxCell>
        <mxCell id="0c3AmFxdO18scSqZdb3u-13" value="InnoDB 是如何存储数据的？" style="whiteSpace=wrap;html=1;fontSize=24;fillColor=#dae8fc;strokeColor=#6c8ebf;rounded=1;strokeWidth=2;fillWeight=4;hachureGap=8;hachureAngle=45;sketch=1;glass=0;fontStyle=1;" vertex="1" parent="1">
          <mxGeometry x="1110" y="20" width="250" height="70" as="geometry" />
        </mxCell>
        <mxCell id="0c3AmFxdO18scSqZdb3u-17" value="B+ 树是如何进行查询的？" style="whiteSpace=wrap;html=1;fontSize=24;fillColor=#dae8fc;strokeColor=#6c8ebf;rounded=1;strokeWidth=2;fillWeight=4;hachureGap=8;hachureAngle=45;sketch=1;glass=0;fontStyle=1;" vertex="1" parent="1">
          <mxGeometry x="1093.75" y="-120" width="282.5" height="60" as="geometry" />
        </mxCell>
        <mxCell id="0c3AmFxdO18scSqZdb3u-22" value="" style="endArrow=classic;html=1;rounded=0;entryX=0;entryY=0;entryDx=0;entryDy=0;exitX=1;exitY=1;exitDx=0;exitDy=0;" edge="1" parent="1" source="0c3AmFxdO18scSqZdb3u-4" target="0c3AmFxdO18scSqZdb3u-6">
          <mxGeometry width="50" height="50" relative="1" as="geometry">
            <mxPoint x="570" y="200" as="sourcePoint" />
            <mxPoint x="640" y="160" as="targetPoint" />
            <Array as="points">
              <mxPoint x="640" y="230" />
            </Array>
          </mxGeometry>
        </mxCell>
        <mxCell id="0c3AmFxdO18scSqZdb3u-44" style="edgeStyle=orthogonalEdgeStyle;rounded=0;orthogonalLoop=1;jettySize=auto;html=1;entryX=0;entryY=0.5;entryDx=0;entryDy=0;fontSize=24;" edge="1" parent="1" target="0c3AmFxdO18scSqZdb3u-30">
          <mxGeometry relative="1" as="geometry">
            <mxPoint x="1210" y="502.5" as="sourcePoint" />
          </mxGeometry>
        </mxCell>
        <mxCell id="0c3AmFxdO18scSqZdb3u-56" style="edgeStyle=orthogonalEdgeStyle;rounded=0;orthogonalLoop=1;jettySize=auto;html=1;entryX=0;entryY=0.5;entryDx=0;entryDy=0;fontSize=24;" edge="1" parent="1" source="0c3AmFxdO18scSqZdb3u-30" target="0c3AmFxdO18scSqZdb3u-48">
          <mxGeometry relative="1" as="geometry" />
        </mxCell>
        <mxCell id="0c3AmFxdO18scSqZdb3u-59" style="edgeStyle=orthogonalEdgeStyle;rounded=0;orthogonalLoop=1;jettySize=auto;html=1;entryX=0.5;entryY=0;entryDx=0;entryDy=0;entryPerimeter=0;fontSize=24;" edge="1" parent="1" source="0c3AmFxdO18scSqZdb3u-30" target="0c3AmFxdO18scSqZdb3u-58">
          <mxGeometry relative="1" as="geometry" />
        </mxCell>
        <mxCell id="0c3AmFxdO18scSqZdb3u-30" value="redo log file" style="whiteSpace=wrap;html=1;fontSize=24;fillColor=#dae8fc;strokeColor=#6c8ebf;rounded=1;glass=0;sketch=1;fillWeight=4;hachureGap=8;hachureAngle=45;strokeWidth=2;" vertex="1" parent="1">
          <mxGeometry x="1120" y="468.75" width="195" height="71.25" as="geometry" />
        </mxCell>
        <mxCell id="0c3AmFxdO18scSqZdb3u-37" value="undo log的区别" style="whiteSpace=wrap;html=1;rounded=1;glass=0;sketch=1;fillWeight=4;hachureGap=8;hachureAngle=45;strokeColor=#6c8ebf;strokeWidth=2;fontFamily=Helvetica;fontSize=24;fontColor=default;fillColor=#dae8fc;" vertex="1" parent="1">
          <mxGeometry x="677.5" y="470" width="195" height="70" as="geometry" />
        </mxCell>
        <mxCell id="0c3AmFxdO18scSqZdb3u-48" value="写满如何处理" style="whiteSpace=wrap;html=1;fontSize=24;fillColor=#dae8fc;strokeColor=#6c8ebf;rounded=1;glass=0;sketch=1;fillWeight=4;hachureGap=8;hachureAngle=45;strokeWidth=2;" vertex="1" parent="1">
          <mxGeometry x="1430" y="475" width="175" height="60" as="geometry" />
        </mxCell>
        <mxCell id="0c3AmFxdO18scSqZdb3u-55" style="edgeStyle=orthogonalEdgeStyle;rounded=0;orthogonalLoop=1;jettySize=auto;html=1;fontSize=24;" edge="1" parent="1" source="0c3AmFxdO18scSqZdb3u-52">
          <mxGeometry relative="1" as="geometry">
            <mxPoint x="1220" y="470" as="targetPoint" />
            <Array as="points">
              <mxPoint x="1220" y="400" />
              <mxPoint x="1220" y="400" />
            </Array>
          </mxGeometry>
        </mxCell>
        <mxCell id="0c3AmFxdO18scSqZdb3u-52" value="redo log buffer" style="whiteSpace=wrap;html=1;rounded=1;glass=0;sketch=1;fillWeight=4;hachureGap=8;hachureAngle=45;strokeColor=#6c8ebf;strokeWidth=2;fontFamily=Helvetica;fontSize=24;fontColor=default;fillColor=#dae8fc;" vertex="1" parent="1">
          <mxGeometry x="1120" y="280" width="200" height="65" as="geometry" />
        </mxCell>
        <mxCell id="0c3AmFxdO18scSqZdb3u-53" value="" style="endArrow=classic;html=1;rounded=0;fontSize=24;exitX=1;exitY=1;exitDx=0;exitDy=0;" edge="1" parent="1" source="0c3AmFxdO18scSqZdb3u-9">
          <mxGeometry width="50" height="50" relative="1" as="geometry">
            <mxPoint x="1090" y="250" as="sourcePoint" />
            <mxPoint x="1120" y="280" as="targetPoint" />
          </mxGeometry>
        </mxCell>
        <mxCell id="0c3AmFxdO18scSqZdb3u-58" value="" style="fontColor=#0066CC;verticalAlign=top;verticalLabelPosition=bottom;labelPosition=center;align=center;html=1;outlineConnect=0;fillColor=#CCCCCC;strokeColor=#6881B3;gradientColor=none;gradientDirection=north;strokeWidth=2;shape=mxgraph.networks.storage;fontSize=24;" vertex="1" parent="1">
          <mxGeometry x="1167.5" y="640" width="100" height="100" as="geometry" />
        </mxCell>
        <mxCell id="0c3AmFxdO18scSqZdb3u-60" value="磁盘" style="text;html=1;align=center;verticalAlign=middle;resizable=0;points=[];autosize=1;strokeColor=none;fillColor=none;fontSize=24;" vertex="1" parent="1">
          <mxGeometry x="1182.5" y="740" width="70" height="40" as="geometry" />
        </mxCell>
      </root>
    </mxGraphModel>
  </diagram>
</mxfile>
